HIERARCHY
ROOT Hips
{
	OFFSET 0.000000 97.167313 0.000000
	CHANNELS 6 Xposition Yposition Zposition Xrotation Yrotation Zrotation
	JOINT Spine
	{
		OFFSET 0.000000 13.784798 0.064400
		CHANNELS 3 Xrotation Yrotation Zrotation
		JOINT Spine1
		{
			OFFSET 0.000000 12.037903 0.404700
			CHANNELS 3 Xrotation Yrotation Zrotation
			JOINT Spine2
			{
				OFFSET 0.000000 17.795601 0.420200
				CHANNELS 3 Xrotation Yrotation Zrotation
				JOINT Neck
				{
					OFFSET 0.000000 39.131302 11.954600
					CHANNELS 3 Xrotation Yrotation Zrotation
					JOINT Head
					{
						OFFSET 0.000000 14.456192 15.627699
						CHANNELS 3 Xrotation Yrotation Zrotation
						JOINT HeadTop_End
						{
							OFFSET 0.000000 15.703506 7.603401
							CHANNELS 3 Xrotation Yrotation Zrotation
							End Site
							{
								OFFSET 0.000000 17.447403 0.000000
							}
						}
					}
				}
				JOINT LeftShoulder
				{
					OFFSET 17.399500 24.608795 1.168800
					CHANNELS 3 Xrotation Yrotation Zrotation
					JOINT LeftArm
					{
						OFFSET 18.980635 5.765305 1.818600
						CHANNELS 3 Xrotation Yrotation Zrotation
						JOINT LeftForeArm
						{
							OFFSET 49.290169 0.000000 0.000000
							CHANNELS 3 Xrotation Yrotation Zrotation
							JOINT LeftHand
							{
								OFFSET 31.562012 0.000000 0.000000
								CHANNELS 3 Xrotation Yrotation Zrotation
								JOINT LeftHandThumb1
								{
									OFFSET 6.133995 -4.388519 7.076070
									CHANNELS 3 Xrotation Yrotation Zrotation
									JOINT LeftHandThumb2
									{
										OFFSET 6.037666 -3.485840 3.485847
										CHANNELS 3 Xrotation Yrotation Zrotation
										JOINT LeftHandThumb3
										{
											OFFSET 6.496506 -3.750763 3.750761
											CHANNELS 3 Xrotation Yrotation Zrotation
											JOINT LeftHandThumb4
											{
												OFFSET 5.616882 -3.242905 3.242910
												CHANNELS 3 Xrotation Yrotation Zrotation
												End Site
												{
													OFFSET -1.254608 7.132141 0.375429
												}
											}
										}
									}
								}
								JOINT LeftHandPinky1
								{
									OFFSET 18.920792 -0.453171 -11.426712
									CHANNELS 3 Xrotation Yrotation Zrotation
									JOINT LeftHandPinky2
									{
										OFFSET 4.919586 0.000000 0.000000
										CHANNELS 3 Xrotation Yrotation Zrotation
										JOINT LeftHandPinky3
										{
											OFFSET 5.233047 0.000000 0.000000
											CHANNELS 3 Xrotation Yrotation Zrotation
											JOINT LeftHandPinky4
											{
												OFFSET 5.571716 0.000000 0.000000
												CHANNELS 3 Xrotation Yrotation Zrotation
												End Site
												{
													OFFSET -3.459808 4.342407 -0.466164
												}
											}
										}
									}
								}
								JOINT LeftHandRing1
								{
									OFFSET 22.726120 -0.094986 -6.500475
									CHANNELS 3 Xrotation Yrotation Zrotation
									JOINT LeftHandRing2
									{
										OFFSET 6.408615 0.000000 0.000000
										CHANNELS 3 Xrotation Yrotation Zrotation
										JOINT LeftHandRing3
										{
											OFFSET 6.150223 0.000000 0.000000
											CHANNELS 3 Xrotation Yrotation Zrotation
											JOINT LeftHandRing4
											{
												OFFSET 6.145386 0.000000 0.000000
												CHANNELS 3 Xrotation Yrotation Zrotation
												End Site
												{
													OFFSET -3.671402 4.923981 -0.202372
												}
											}
										}
									}
								}
								JOINT LeftHandMiddle1
								{
									OFFSET 23.373947 0.000000 0.000001
									CHANNELS 3 Xrotation Yrotation Zrotation
									JOINT LeftHandMiddle2
									{
										OFFSET 6.996567 0.000000 0.000000
										CHANNELS 3 Xrotation Yrotation Zrotation
										JOINT LeftHandMiddle3
										{
											OFFSET 7.015945 0.000000 0.000000
											CHANNELS 3 Xrotation Yrotation Zrotation
											JOINT LeftHandMiddle4
											{
												OFFSET 7.721573 0.000000 0.000000
												CHANNELS 3 Xrotation Yrotation Zrotation
												End Site
												{
													OFFSET -4.651108 6.158463 0.251582
												}
											}
										}
									}
								}
								JOINT LeftHandIndex1
								{
									OFFSET 21.310577 -0.490082 6.209344
									CHANNELS 3 Xrotation Yrotation Zrotation
									JOINT LeftHandIndex2
									{
										OFFSET 7.536453 0.000000 0.000000
										CHANNELS 3 Xrotation Yrotation Zrotation
										JOINT LeftHandIndex3
										{
											OFFSET 7.512344 0.000000 0.000000
											CHANNELS 3 Xrotation Yrotation Zrotation
											JOINT LeftHandIndex4
											{
												OFFSET 10.212402 0.000000 0.000001
												CHANNELS 3 Xrotation Yrotation Zrotation
												End Site
												{
													OFFSET -5.180801 8.690506 1.388433
												}
											}
										}
									}
								}
							}
						}
					}
				}
				JOINT RightShoulder
				{
					OFFSET -17.399500 24.608795 1.168800
					CHANNELS 3 Xrotation Yrotation Zrotation
					JOINT RightArm
					{
						OFFSET -18.980635 5.765305 1.818600
						CHANNELS 3 Xrotation Yrotation Zrotation
						JOINT RightForeArm
						{
							OFFSET -49.290169 0.000000 0.000000
							CHANNELS 3 Xrotation Yrotation Zrotation
							JOINT RightHand
							{
								OFFSET -31.562012 0.000000 0.000000
								CHANNELS 3 Xrotation Yrotation Zrotation
								JOINT RightHandThumb1
								{
									OFFSET -6.133995 -4.388519 7.076070
									CHANNELS 3 Xrotation Yrotation Zrotation
									JOINT RightHandThumb2
									{
										OFFSET -6.037666 -3.485840 3.485847
										CHANNELS 3 Xrotation Yrotation Zrotation
										JOINT RightHandThumb3
										{
											OFFSET -6.496506 -3.750763 3.750761
											CHANNELS 3 Xrotation Yrotation Zrotation
											JOINT RightHandThumb4
											{
												OFFSET -5.616882 -3.242905 3.242910
												CHANNELS 3 Xrotation Yrotation Zrotation
												End Site
												{
													OFFSET 1.254608 7.132141 0.375429
												}
											}
										}
									}
								}
								JOINT RightHandIndex1
								{
									OFFSET -21.310577 -0.490082 6.209344
									CHANNELS 3 Xrotation Yrotation Zrotation
									JOINT RightHandIndex2
									{
										OFFSET -7.536453 0.000000 0.000000
										CHANNELS 3 Xrotation Yrotation Zrotation
										JOINT RightHandIndex3
										{
											OFFSET -7.512344 0.000000 0.000000
											CHANNELS 3 Xrotation Yrotation Zrotation
											JOINT RightHandIndex4
											{
												OFFSET -10.212402 0.000000 0.000001
												CHANNELS 3 Xrotation Yrotation Zrotation
												End Site
												{
													OFFSET 5.180801 8.690506 1.388433
												}
											}
										}
									}
								}
								JOINT RightHandMiddle1
								{
									OFFSET -23.373947 0.000000 0.000001
									CHANNELS 3 Xrotation Yrotation Zrotation
									JOINT RightHandMiddle2
									{
										OFFSET -6.996567 0.000000 0.000000
										CHANNELS 3 Xrotation Yrotation Zrotation
										JOINT RightHandMiddle3
										{
											OFFSET -7.015945 0.000000 0.000000
											CHANNELS 3 Xrotation Yrotation Zrotation
											JOINT RightHandMiddle4
											{
												OFFSET -7.721573 0.000000 0.000000
												CHANNELS 3 Xrotation Yrotation Zrotation
												End Site
												{
													OFFSET 4.651108 6.158463 0.251582
												}
											}
										}
									}
								}
								JOINT RightHandRing1
								{
									OFFSET -22.726120 -0.094986 -6.500475
									CHANNELS 3 Xrotation Yrotation Zrotation
									JOINT RightHandRing2
									{
										OFFSET -6.408615 0.000000 0.000000
										CHANNELS 3 Xrotation Yrotation Zrotation
										JOINT RightHandRing3
										{
											OFFSET -6.150223 0.000000 0.000000
											CHANNELS 3 Xrotation Yrotation Zrotation
											JOINT RightHandRing4
											{
												OFFSET -6.145386 0.000000 0.000000
												CHANNELS 3 Xrotation Yrotation Zrotation
												End Site
												{
													OFFSET 3.671402 4.923981 -0.202372
												}
											}
										}
									}
								}
								JOINT RightHandPinky1
								{
									OFFSET -18.920792 -0.453171 -11.426712
									CHANNELS 3 Xrotation Yrotation Zrotation
									JOINT RightHandPinky2
									{
										OFFSET -4.919586 0.000000 0.000000
										CHANNELS 3 Xrotation Yrotation Zrotation
										JOINT RightHandPinky3
										{
											OFFSET -5.233047 0.000000 0.000000
											CHANNELS 3 Xrotation Yrotation Zrotation
											JOINT RightHandPinky4
											{
												OFFSET -5.571716 0.000000 0.000000
												CHANNELS 3 Xrotation Yrotation Zrotation
												End Site
												{
													OFFSET 3.459808 4.342407 -0.466164
												}
											}
										}
									}
								}
							}
						}
					}
				}
			}
		}
	}
	JOINT LeftUpLeg
	{
		OFFSET 19.899099 -7.885101 -3.429500
		CHANNELS 3 Xrotation Yrotation Zrotation
		JOINT LeftLeg
		{
			OFFSET 1.745560 -36.997807 10.304700
			CHANNELS 3 Xrotation Yrotation Zrotation
			JOINT LeftFoot
			{
				OFFSET -1.745558 -29.803308 -13.615400
				CHANNELS 3 Xrotation Yrotation Zrotation
				JOINT LeftToeBase
				{
					OFFSET 1.181900 -18.539904 15.226099
					CHANNELS 3 Xrotation Yrotation Zrotation
					JOINT LeftToe_End
					{
						OFFSET -0.863701 1.402801 16.534700
						CHANNELS 3 Xrotation Yrotation Zrotation
						End Site
						{
							OFFSET 0.000000 16.616566 0.000000
						}
					}
				}
			}
		}
	}
	JOINT RightUpLeg
	{
		OFFSET -19.899099 -7.885101 -3.429500
		CHANNELS 3 Xrotation Yrotation Zrotation
		JOINT RightLeg
		{
			OFFSET -1.745560 -36.997807 10.304700
			CHANNELS 3 Xrotation Yrotation Zrotation
			JOINT RightFoot
			{
				OFFSET 1.745558 -29.803308 -13.615400
				CHANNELS 3 Xrotation Yrotation Zrotation
				JOINT RightToeBase
				{
					OFFSET -1.181900 -18.539904 15.226099
					CHANNELS 3 Xrotation Yrotation Zrotation
					JOINT RightToe_End
					{
						OFFSET 0.863701 1.402801 16.534700
						CHANNELS 3 Xrotation Yrotation Zrotation
						End Site
						{
							OFFSET 0.000000 16.616566 0.000000
						}
					}
				}
			}
		}
	}
}
MOTION
Frames: 6
Frame Time: 0.033333
-2.443742 83.472862 77.575966 -2.568187 0.428477 -0.707321 14.184777 -1.384570 1.821261 0.040725 -0.246766 0.582233 0.039264 -0.222497 0.593513 -0.670105 2.516926 0.634255 1.618906 -9.310405 17.393751 0.000001 0.000000 -0.000003 0.210180 -1.495110 3.890236 -79.348705 -39.505947 -76.897166 0.000044 -60.538603 0.000020 -14.718726 -20.242487 52.564839 -26.230833 -17.126331 -13.699936 32.294504 59.420754 -19.535415 8.720866 23.775134 -2.697536 -0.000000 0.000001 -0.000002 0.419827 3.741472 -52.794306 3.368929 1.832878 -59.341824 7.481164 6.855130 -95.013839 0.000001 -0.000001 -0.000007 9.108436 8.250500 -68.609530 7.440899 6.858493 -94.676572 4.878119 6.584533 -73.038034 -0.000001 -0.000003 0.000001 12.111122 7.515921 -83.508003 6.965729 6.880682 -90.705588 3.831696 6.171496 -63.639236 -0.000001 -0.000001 0.000004 9.978552 6.898805 -89.673834 7.544757 6.849286 -95.546826 1.330122 4.072872 -36.159247 -0.000002 0.000001 0.000001 0.583873 3.028522 5.620382 -69.526729 41.319199 56.123914 0.000056 60.401576 -0.000037 -3.921079 23.695501 -35.702826 -23.191911 -1.982830 21.642902 26.204016 -43.284958 6.729665 18.699210 -45.674834 -0.115127 -0.000002 0.000002 0.000003 8.864562 -7.072080 86.632835 7.292346 -6.939750 92.845603 2.067894 -4.951707 45.310884 0.000001 -0.000001 -0.000002 7.814512 -7.117717 82.599493 7.498197 -6.926527 94.550739 4.831155 -6.587773 72.140178 -0.000001 -0.000000 -0.000001 2.348364 -5.546360 65.527886 7.631921 -6.914662 95.660549 5.619921 -6.921271 79.108296 -0.000001 0.000002 -0.000001 -2.559276 6.189394 19.763004 6.553957 -6.937085 86.739011 5.013871 -6.674823 73.797981 0.000000 -0.000000 0.000002 -31.279244 2.653777 -0.278729 42.265146 -9.546860 10.342805 -10.286575 -19.578491 -6.839608 -0.889907 0.000005 0.000000 -0.000000 -0.000002 -0.000000 -44.687920 -9.173421 -3.227430 108.899539 -2.494622 -8.854964 -6.611333 -1.289864 4.802989 -0.000006 -0.000002 0.000002 -0.000001 -0.000000 0.000000 
-1.678123 83.396683 75.147552 -1.209918 1.360029 0.812131 11.982045 1.121929 -0.630808 -0.157174 0.240232 0.014316 -0.155321 0.241096 0.003835 -1.573140 1.907425 0.786740 2.089832 -12.028751 20.496462 -0.000000 0.000000 0.000001 0.197505 -1.212606 3.527708 -83.071752 -45.833619 -78.447462 0.000052 -51.761100 0.000027 -19.924620 -23.497589 50.591297 -25.276305 -16.657624 -13.407795 30.467971 58.532467 -18.013418 9.460156 25.058318 -3.107305 -0.000000 -0.000000 -0.000001 0.365757 3.639687 -51.853143 3.289164 1.784875 -58.568141 7.481111 6.855126 -95.013491 0.000002 -0.000000 -0.000001 8.836933 8.207887 -67.910187 7.504662 6.853020 -95.210774 4.845800 6.574657 -72.755967 -0.000002 -0.000001 0.000001 11.836314 7.513963 -83.218574 7.023758 6.879713 -91.189965 3.815247 6.163371 -63.486096 -0.000000 -0.000001 0.000004 10.282095 6.925570 -89.257206 7.613756 6.842280 -96.125685 1.369502 4.126080 -36.710078 0.000002 0.000001 -0.000001 0.467150 2.977805 -1.969653 -64.050707 34.902338 55.247611 -0.000065 61.946005 0.000065 -4.126403 25.141201 -41.478451 -21.309138 -5.128323 25.633806 28.268988 -45.200457 7.617239 17.162604 -42.903867 -0.494664 0.000001 -0.000002 -0.000003 7.690511 -7.034879 85.175246 7.192035 -6.943975 92.015666 2.092281 -4.975630 45.592766 -0.000000 -0.000001 0.000001 6.813062 -7.017599 80.717229 7.427881 -6.931738 93.968021 4.686313 -6.553492 70.910218 -0.000002 -0.000001 -0.000004 1.439260 -5.038761 63.789370 7.465071 -6.929074 94.276179 5.304837 -6.895449 76.559829 -0.000002 0.000002 0.000000 -2.457615 5.349884 20.961210 6.133710 -6.900560 83.251461 4.927348 -6.649241 73.052070 -0.000002 0.000003 -0.000001 -34.288820 3.053966 -2.063020 39.363517 -9.322553 8.640562 -5.381364 -20.587428 -5.229701 -1.340974 -0.000002 -0.000002 -0.000000 0.000002 0.000000 -29.850782 -11.371526 -9.210894 96.844692 -0.453212 -4.944190 -5.400141 0.255887 0.497983 0.000010 -0.000000 -0.000002 0.000001 0.000000 -0.000001 
-1.164792 84.415894 73.523132 -1.764174 0.104910 1.832035 10.742709 4.218824 -0.872381 0.301682 0.801485 -0.929655 0.318412 0.769964 -0.954420 -1.286727 1.939105 -0.472505 2.688992 -13.598636 21.185138 -0.000000 0.000001 -0.000001 0.430414 -2.499263 4.144251 -83.467241 -50.186119 -76.302830 0.000041 -45.462156 0.000031 -24.179935 -24.657044 48.839247 -24.868388 -16.439676 -13.295382 30.761970 58.673791 -18.234831 10.077828 26.093722 -3.451076 -0.000000 -0.000001 -0.000001 0.373683 3.651722 -51.943790 3.252702 1.762435 -58.212316 7.481066 6.855128 -95.013355 -0.000000 -0.000001 -0.000002 8.831160 8.159949 -68.415102 7.539480 6.849775 -95.502560 4.811027 6.563832 -72.452058 0.000001 0.000002 0.000003 11.737482 7.467009 -83.573505 7.083432 6.878214 -91.688179 3.784470 6.148003 -63.199064 -0.000000 0.000002 0.000007 10.276637 6.908753 -89.535659 7.695486 6.833074 -96.812051 1.430365 4.206257 -37.547865 -0.000002 0.000003 0.000001 0.218992 1.920584 -4.698903 -62.449540 39.271771 54.374593 0.000040 56.151993 -0.000021 -8.656260 27.196266 -47.160643 -22.323543 0.391288 16.326440 28.709915 -45.595618 7.810509 16.657006 -41.962411 -0.609794 0.000001 0.000001 0.000004 6.229146 -6.913768 82.451195 7.279072 -6.940384 92.735780 2.331080 -5.197903 48.285578 0.000001 -0.000003 0.000003 4.705380 -6.590487 74.516503 7.560346 -6.921353 95.066534 4.193867 -6.389347 66.620484 -0.000001 -0.000000 -0.000004 -1.138270 -2.960766 56.363927 7.751194 -6.901901 96.652217 4.712342 -6.860407 71.899639 -0.000001 0.000001 -0.000002 -1.965759 5.833030 16.615301 5.667439 -6.829730 79.352257 4.999990 -6.670800 73.678453 -0.000000 0.000001 0.000006 -32.548044 4.336885 -3.366576 36.085235 -8.378021 7.764433 -2.693194 -20.277131 -2.382808 -1.904254 -0.000004 -0.000000 0.000000 -0.000001 0.000000 -11.422884 -13.382597 -13.203164 81.443606 1.022876 -1.323250 -10.054023 -0.447640 4.105449 -0.000002 -0.000001 -0.000001 -0.000000 -0.000001 -0.000001 
-0.553906 84.789551 73.051773 -1.822858 -4.315456 2.351007 9.497947 7.107675 0.362168 0.747652 1.359096 -2.074325 0.803313 1.295458 -2.100988 -0.933558 2.391541 -1.294921 3.590128 -12.163765 19.699490 -0.000001 -0.000000 -0.000002 0.359303 -1.657849 5.012289 -82.021262 -53.607771 -72.754635 0.000015 -40.992067 0.000005 -27.518303 -25.193042 48.326696 -24.421210 -16.190069 -13.190898 30.755686 58.671414 -18.232341 11.313533 28.071328 -4.143290 0.000002 -0.000001 -0.000002 0.475584 3.729793 -51.910247 3.208804 1.735024 -57.782260 7.481149 6.855122 -95.013819 -0.000000 -0.000000 -0.000004 8.853716 8.130932 -68.840042 7.566295 6.847153 -95.727417 4.744373 6.542516 -71.868009 0.000001 0.000001 -0.000000 11.699572 7.437847 -83.828086 7.191629 6.874225 -92.591991 3.704534 6.107195 -62.450168 -0.000000 -0.000001 0.000006 10.262581 6.892624 -89.805813 7.804738 6.819231 -97.731278 1.479535 4.269287 -38.213187 0.000004 -0.000003 -0.000004 -0.060654 0.267215 -5.775160 -61.614385 50.837498 51.332830 0.000023 48.048390 -0.000011 -20.064032 29.226974 -43.947339 -22.008731 -0.519205 17.523033 28.373542 -45.294615 7.662918 14.504899 -37.792465 -1.048014 0.000000 0.000004 0.000001 2.962128 -5.949550 70.045721 7.014626 -6.947922 90.548829 2.630006 -5.448571 51.506679 0.000002 0.000000 0.000001 1.475207 -4.658475 55.036134 7.413092 -6.932746 93.845501 3.624534 -6.137514 61.489925 -0.000002 0.000003 -0.000009 -2.723352 1.526506 36.184450 7.295076 -6.939606 92.868156 4.092324 -6.692765 66.827063 -0.000001 -0.000002 0.000002 -1.379235 5.331883 13.175317 3.632960 -6.109705 61.442258 4.048819 -6.317091 65.283269 -0.000000 0.000000 0.000000 -32.439072 6.575118 -2.421916 36.320077 -7.262525 5.142383 1.840940 -17.356448 -0.626049 -7.185085 -0.000000 -0.000002 0.000000 0.000002 0.000000 2.625548 -14.784363 -15.892035 65.897242 -2.297653 0.358209 -14.852340 -2.130778 8.693717 0.000007 -0.000003 0.000008 -0.000000 -0.000001 -0.000001 
-0.141550 83.493088 73.245728 -0.747983 -12.101674 2.100224 8.774228 9.474143 1.709353 1.163461 1.854853 -3.114232 1.271973 1.762927 -3.134774 -1.622054 3.202765 -0.662094 3.014509 -6.806272 17.471043 0.000000 0.000001 0.000001 -0.292818 2.420632 7.487219 -79.467209 -54.503861 -68.045118 0.000032 -38.843381 0.000017 -30.153759 -26.002199 47.864272 -23.906987 -15.915177 -13.050308 30.821509 58.696071 -18.258422 11.894932 28.961191 -4.471233 0.000001 -0.000002 -0.000003 0.642742 3.839692 -51.523996 3.199861 1.729372 -57.694301 7.481270 6.855115 -95.014960 0.000001 0.000001 -0.000000 8.877983 8.136598 -68.881078 7.590121 6.844746 -95.927357 4.681279 6.521650 -71.313336 -0.000002 0.000000 0.000005 11.691496 7.450822 -83.686107 7.293822 6.868863 -93.445792 3.615403 6.060127 -61.609276 0.000001 0.000001 0.000006 10.282732 6.894865 -89.768801 7.873396 6.809624 -98.309993 1.481940 4.272330 -38.245443 0.000002 -0.000002 -0.000001 -0.454052 -0.817985 -10.249573 -62.517377 56.331070 51.043308 0.000025 45.385152 -0.000023 -26.429613 28.812788 -34.295640 -17.759291 -7.508526 27.156088 26.273555 -43.351252 6.759082 9.407182 -26.897633 -1.776267 0.000006 -0.000002 0.000001 -0.319903 -1.831391 36.185506 4.847987 -6.624701 72.365403 1.589634 -4.429522 39.467664 0.000003 -0.000002 0.000003 -0.067656 -1.281694 23.381460 4.994954 -6.669312 73.635088 2.713972 -5.536272 52.496991 -0.000002 0.000001 -0.000004 -0.445683 1.871619 10.337239 3.202435 -5.856245 57.313634 2.513021 -5.491894 50.976984 -0.000003 0.000003 -0.000005 -0.516840 1.641582 12.406873 0.864926 -3.363610 28.834060 1.291987 -4.042015 35.439352 -0.000001 -0.000003 0.000004 -37.659163 11.075597 4.499070 44.328700 -6.011957 0.827949 4.633759 -15.459959 -1.509856 -10.167406 -0.002622 0.513261 0.000000 0.000000 -0.000000 8.233505 -16.519724 -19.169399 54.727396 -3.885681 -0.195054 -20.182193 -3.577051 9.760370 -1.898898 -0.148524 4.452557 -0.000001 -0.000001 0.000003 
0.045567 80.882835 73.228523 1.204649 -21.383261 1.334069 8.412858 10.751192 3.029546 1.038894 2.128217 -3.497872 1.179796 2.025827 -3.525095 -1.825500 4.541870 -0.186230 1.719447 0.678481 14.663849 -0.000000 -0.000000 -0.000000 -0.787664 4.775930 9.126604 -68.185724 -51.500846 -54.205860 0.000013 -43.208316 0.000015 -32.856584 -25.888150 47.238630 -23.587384 -15.710224 -13.005927 30.987264 58.758041 -18.324059 10.016975 25.993103 -3.417149 -0.000000 -0.000001 0.000000 1.069083 4.139392 -50.594705 3.249964 1.760759 -58.185678 7.481674 6.855077 -95.018238 -0.000000 0.000001 -0.000004 8.913501 8.153204 -68.847685 7.624434 6.841117 -96.215413 4.655301 6.512883 -71.084518 -0.000002 0.000005 0.000002 11.607688 7.477792 -83.311601 7.299656 6.868510 -93.494676 3.592285 6.047659 -61.390130 -0.000002 0.000000 0.000001 10.240249 6.911823 -89.478675 7.871634 6.809874 -98.295103 1.519933 4.319959 -38.752571 0.000004 0.000002 -0.000003 -1.304684 -3.862767 -12.334312 -72.820629 55.905467 63.392324 0.000013 48.792020 -0.000008 -22.642881 26.450015 -28.239137 -20.076877 -3.200877 20.155040 21.573684 -38.573234 4.844295 7.029287 -21.348289 -1.980821 0.000001 -0.000001 -0.000001 -0.481964 0.601116 16.744842 3.291436 -5.912129 58.181785 0.865855 -3.365261 28.849749 -0.000003 -0.000004 -0.000000 -0.094154 1.424081 3.425543 3.557909 -6.068502 60.734828 1.837356 -4.729278 42.670835 -0.000000 0.000001 -0.000001 0.079142 -1.302565 4.320565 2.581464 -5.409801 50.993687 1.297123 -4.013475 35.272852 -0.000004 -0.000001 -0.000002 0.131891 -1.433031 15.770325 0.818635 -3.278249 28.034776 0.460922 -2.493864 20.939702 0.000002 -0.000000 0.000002 -47.566581 12.815785 18.253542 53.132055 -8.371370 -3.488145 11.503131 -14.065246 -12.190733 -16.379765 -1.474849 11.306962 0.000000 0.000000 -0.000000 4.738187 -16.958183 -24.495657 48.851702 4.305995 -1.047396 -23.183935 -4.633409 10.998584 -4.159494 -0.699258 9.508185 -0.000000 -0.000004 0.000003 
